<?xml version="1.0" ?>
<svg xmlns="http://www.w3.org/2000/svg" width="32" height="32" viewBox="0 0 32 32">
  <g transform="translate(16,17) scale(-1,1)">
    <path d="M -3.36,2.8 L 5.51,14.99 L 14.37,2.8 C 14.45,2.71 14.51,2.59 14.51,2.46 C 14.51,2.19 14.28,1.96 14.01,1.96 C 13.97,1.96 13.89,1.97 13.89,1.97 L 8.15,3.94 C 8.11,3.95 8.06,3.96 8.01,3.96 C 7.74,3.96 7.51,3.76 7.51,3.5 C 7.51,3.13 7.51,1 7.51,1 L 5.51,1 L 3.5,1 C 3.5,1 3.51,3.13 3.51,3.5 C 3.51,3.76 3.28,3.97 3.01,3.97 C 2.96,3.97 2.91,3.96 2.86,3.95 L -2.88,1.98 C -2.88,1.98 -2.95,1.96 -2.99,1.96 C -3.27,1.96 -3.49,2.19 -3.49,2.46 C -3.49,2.59 -3.44,2.71 -3.36,2.8 Z" fill="@color/mapbox_notification_turn_icon_color"/>
    <path d="M -7.5,15 L -7.5,-5.16 C -7.5,-8.91 -4.55,-12 -1,-12 C 2.59,-12 5.5,-8.72 5.5,-5.15 L 5.5,4 " fill="none" stroke-width="4" stroke="@color/mapbox_notification_turn_icon_color"/>
  </g>
</svg>
