<?xml version="1.0" ?>
<svg xmlns="http://www.w3.org/2000/svg" width="48" height="48" viewBox="0 0 48 48">
  <g>
    <path d="M11,7 L0,41 L15,41 L16,7 L11,7 Z" fill="@color/mapbox_exit_drawable_color"/>
    <path d="M23,7 L34,41 L19,41 L18,7 L23,7 Z" fill="@color/mapbox_exit_drawable_color"/>
    <path d="M30.8179,7.00653 L46.3213,7.00385 C47.3917,7.00366,48.1178,8.09243,47.7063,9.08053 L41.7459,23.3924 C41.2188,24.6581,39.4101,24.6116,38.9487,23.3205 L36.2182,15.6793 C36.1353,15.4474,35.9967,15.2395,35.8145,15.0739 L29.8094,9.61662 C28.7947,8.69453,29.4469,7.00677,30.8179,7.00653 Z" fill="@color/mapbox_exit_drawable_color"/>
    <path d="M39,17 C29.8,21,32.3333,34.3333,34.5,41 L27.5,41 L27.5,21 C28.3,15.8,35.5,11.8333,38,11 L39,17 Z" fill="@color/mapbox_exit_drawable_color"/>
  </g>
</svg>
