<?xml version="1.0" ?>
<svg xmlns="http://www.w3.org/2000/svg" width="32" height="32" viewBox="0 0 32 32">
  <g transform="translate(16,16)">
    <path d="M -0.99,5.6 L -0.99,16 " fill="none" stroke-linejoin="round" stroke-width="4" stroke="@color/mapbox_notification_turn_icon_color"/>
    <path d="M -3.05,1.48 C -3.05,1.48 -3.05,1.09 -3.05,0.73 C -3.05,0.46 -3.28,0.12 -3.55,0.12 C -3.6,0.12 -3.65,0.07 -3.69,0.08 L -8.44,1.02 C -8.44,1.02 -8.51,1.01 -8.55,1.01 C -8.83,1.01 -9.05,0.78 -9.05,0.51 C -9.05,0.37 -9,0.25 -8.91,0.16 L -1.05,-10.03 L 6.81,0.16 C 6.9,0.25 6.95,0.37 6.95,0.5 C 6.95,0.77 6.73,1 6.45,1 C 6.41,1 6.34,0.99 6.34,0.99 L 1.59,0.02 C 1.55,0.01 1.5,-0 1.45,-0 C 1.18,-0 0.95,0.46 0.95,0.73 C 0.95,1.09 0.96,1.48 0.96,1.48 " fill="@color/mapbox_notification_turn_icon_color"/>
    <path d="M 9.05,-12.55 C 9.05,-10.87 7.68,-9.5 6,-9.5 C 4.32,-9.5 2.95,-10.87 2.95,-12.55 C 2.95,-14.23 4.32,-15.6 6,-15.6 C 7.68,-15.6 9.05,-14.23 9.05,-12.55 Z" fill="@color/mapbox_notification_turn_icon_color"/>
    <path d="M -3.05,4.58 L 0.95,4.58 L 0.95,2.63 L -3.05,2.63 L -3.05,4.58 Z" fill="@color/mapbox_notification_turn_icon_color"/>
  </g>
</svg>
