<?xml version="1.0" ?>
<svg xmlns="http://www.w3.org/2000/svg" width="32" height="32" viewBox="0 0 32 32">
  <g transform="translate(16,17)">
    <path d="M 8.86,-2.82 L 0,-15.02 L -8.86,-2.82 C -8.95,-2.73 -9,-2.62 -9,-2.48 C -9,-2.21 -8.78,-1.98 -8.5,-1.98 C -8.46,-1.98 -8.39,-2 -8.39,-2 L -2.64,-3.96 C -2.6,-3.98 -2.55,-3.98 -2.5,-3.98 C -2.23,-3.98 -2,-3.76 -2,-3.5 L -2,15.02 L 2,15.02 C 2,15.02 2,-3.14 2,-3.5 C 2,-3.76 2.23,-3.98 2.5,-3.98 C 2.55,-3.98 2.6,-3.98 2.64,-3.96 L 8.39,-2 C 8.39,-2 8.46,-1.98 8.5,-1.98 C 8.78,-1.98 9,-2.21 9,-2.48 C 9,-2.62 8.95,-2.73 8.86,-2.82 Z" fill="#000000ff"/>
  </g>
</svg>
