<?xml version="1.0" ?>
<svg xmlns="http://www.w3.org/2000/svg" width="32" height="32" viewBox="0 0 32 32">
  <g transform="translate(15,17) scale(-1,1)">
    <path d="M 0.99,-5.09 L -6.55,1.88 C -7.71,3.63 -8.34,5.75 -8.34,7.93 L -8.34,15.06 " fill="none" stroke-linejoin="round" stroke-width="4" stroke="#000000ff"/>
    <path d="M -2.97,-12.04 L 9.88,-12.76 L 7.31,-0.15 C 7.3,-0.02 7.24,0.09 7.15,0.18 C 6.94,0.36 6.62,0.34 6.44,0.13 C 6.41,0.1 6.38,0.03 6.38,0.03 L 4,-4.19 C 3.99,-4.23 3.96,-4.27 3.93,-4.31 C 3.75,-4.51 3.25,-4.38 3.05,-4.21 C 2.78,-3.98 0.97,-2.41 0.97,-2.41 L -0.34,-3.92 L -1.65,-5.44 C -1.65,-5.44 0.16,-7 0.43,-7.24 C 0.63,-7.41 0.74,-7.81 0.57,-8.01 C 0.53,-8.05 0.54,-8.12 0.5,-8.15 L -3.31,-11.12 C -3.31,-11.12 -3.36,-11.18 -3.38,-11.21 C -3.56,-11.42 -3.53,-11.74 -3.32,-11.92 C -3.22,-12.01 -3.09,-12.05 -2.97,-12.04 Z" fill="#000000ff"/>
  </g>
</svg>
